<?xml version="1.0" standalone="no"?>
<!DOCTYPE svg PUBLIC "-//W3C//DTD SVG 20010904//EN"
 "http://www.w3.org/TR/2001/REC-SVG-20010904/DTD/svg10.dtd">
<svg version="1.0" xmlns="http://www.w3.org/2000/svg"
 width="198.000000pt" height="198.000000pt" viewBox="0 0 198.000000 198.000000"
 preserveAspectRatio="xMidYMid meet">
<metadata>
Created by potrace 1.14, written by Peter Selinger 2001-2017
</metadata>
<g transform="translate(0.000000,198.000000) scale(0.100000,-0.100000)"
fill="#000000" stroke="none">
<path d="M940 1876 c0 -51 -1 -53 -25 -48 -22 4 -25 1 -25 -22 0 -30 -7 -33
-26 -8 -13 16 -14 16 -7 -2 4 -13 3 -17 -5 -12 -7 4 -12 3 -12 -2 0 -6 -8 -8
-19 -5 -23 6 -39 -16 -20 -27 18 -12 -31 -24 -71 -18 -17 3 -30 1 -30 -4 0 -5
-6 -8 -12 -7 -25 3 -35 -1 -35 -16 0 -8 4 -15 9 -15 4 0 8 7 8 15 0 8 6 12 14
9 8 -3 12 -12 10 -19 -4 -8 -25 -13 -62 -14 -31 -1 -65 -2 -75 -2 -11 0 -17
-5 -14 -13 3 -7 1 -19 -4 -27 -6 -10 -9 -10 -9 -1 0 6 -5 12 -11 12 -5 0 -8
-3 -5 -8 2 -4 -13 -7 -33 -7 -32 0 -38 3 -37 20 1 17 -6 20 -46 22 l-46 2 -4
-50 c-3 -56 2 -65 30 -50 17 9 19 7 16 -19 -4 -29 13 -51 25 -33 3 5 15 0 25
-10 19 -20 19 -20 -7 -13 -14 3 -28 3 -31 -2 -2 -4 3 -8 12 -9 9 -1 40 -4 67
-6 28 -2 52 -5 55 -6 10 -2 5 -236 -5 -243 -7 -5 -7 -8 0 -8 6 0 11 -9 11 -20
0 -15 -7 -20 -28 -20 -25 0 -28 -3 -24 -25 4 -22 1 -25 -25 -25 -25 0 -29 -3
-25 -23 4 -21 0 -23 -57 -25 -33 -1 -64 -5 -69 -8 -4 -3 -11 2 -14 10 -3 9
-14 16 -23 17 -13 0 -12 2 3 8 27 10 9 18 -39 17 -35 -1 -40 -4 -43 -26 -4
-35 -4 -41 1 -79 4 -36 27 -57 24 -22 0 11 -5 17 -11 14 -5 -3 -6 -1 -2 5 4 6
13 9 21 6 8 -4 13 -10 10 -14 -11 -18 7 -37 31 -32 14 2 24 0 24 -7 0 -7 -4
-10 -9 -7 -4 3 -17 -1 -27 -9 -10 -8 -14 -15 -7 -15 6 0 15 5 18 10 4 6 11 7
17 4 6 -4 5 -10 -3 -16 -11 -7 -11 -9 1 -7 8 1 36 1 61 0 l46 -1 -2 -132 c-2
-140 -8 -170 -31 -161 -8 3 -15 -1 -15 -11 -4 -44 0 -41 -51 -45 -10 0 -18 -6
-18 -12 0 -5 4 -8 9 -5 5 4 7 -3 4 -15 -4 -14 -9 -17 -16 -10 -5 5 -17 7 -26
3 -15 -7 -54 -8 -106 -3 -11 2 -15 5 -7 8 6 2 12 11 12 19 0 10 -14 14 -50 14
l-50 0 0 -49 c0 -44 3 -50 23 -53 16 -2 22 -9 21 -25 0 -18 5 -23 25 -24 14
-1 30 -1 36 1 5 1 1 -9 -10 -21 -11 -12 -14 -19 -7 -15 7 4 12 2 12 -6 0 -9 3
-9 10 2 5 8 10 11 10 5 0 -5 17 -10 37 -10 l38 0 2 -140 c1 -77 2 -155 2 -172
l1 -33 740 0 740 0 0 176 c0 168 1 175 19 169 11 -3 23 -1 26 6 6 8 10 8 15
-2 6 -9 12 -10 22 -1 7 6 25 9 39 8 26 -3 28 2 31 66 1 20 4 23 13 15 7 -7 10
-19 7 -27 -5 -13 -4 -13 10 0 14 13 14 16 -1 27 -14 12 -14 12 2 7 15 -5 17 1
17 45 l0 51 -50 0 c-27 0 -49 -3 -49 -7 5 -33 -2 -38 -59 -38 -39 0 -59 4 -59
12 0 7 4 10 8 8 4 -3 6 3 5 12 -2 10 -7 16 -12 13 -5 -3 -8 -8 -7 -12 5 -14
-15 -9 -31 8 -9 8 -20 12 -26 9 -6 -3 -13 1 -17 10 -3 10 0 21 8 26 12 7 12 9
-1 10 -8 1 -23 1 -32 0 -20 -3 -20 -10 -22 172 l-2 127 47 0 c40 0 50 4 60 23
12 21 11 21 -7 7 -18 -14 -18 -14 -5 3 7 9 20 17 27 17 17 0 17 -5 4 -30 -8
-15 -7 -18 3 -14 8 3 14 10 15 17 0 7 2 26 3 42 1 24 7 31 23 33 12 0 16 -2 9
-6 -19 -12 -19 -34 0 -37 9 -2 17 1 17 6 0 5 -5 9 -11 9 -8 0 -8 4 -1 13 6 7
11 36 10 64 l0 50 -48 -1 c-44 -1 -47 -3 -44 -23 4 -22 1 -23 -56 -23 -36 0
-60 4 -60 11 0 5 4 8 8 5 5 -3 9 1 9 7 0 7 -10 14 -21 15 -17 1 -18 -1 -6 -8
11 -7 11 -10 2 -10 -7 0 -10 -4 -7 -10 3 -5 1 -10 -5 -10 -6 0 -10 6 -9 13 4
31 -2 38 -28 35 -19 -2 -27 2 -29 15 -1 9 2 17 7 17 6 0 7 5 4 10 -3 6 -16 10
-29 10 -29 0 -39 10 -25 27 6 7 7 13 3 13 -10 0 -13 249 -4 251 5 1 44 5 102
11 20 1 34 7 31 11 -2 4 -13 5 -22 2 -11 -3 -18 0 -18 9 0 9 4 13 9 10 4 -3 8
-1 8 4 0 6 8 8 19 5 10 -3 22 0 25 6 4 5 14 7 24 4 18 -7 17 -5 -12 17 -18 13
-19 13 -11 0 6 -12 5 -13 -5 -3 -19 17 -3 30 19 16 15 -10 17 -6 20 30 1 22 4
44 7 48 2 4 0 10 -6 14 -6 4 -7 11 -4 17 4 7 0 7 -13 0 -10 -6 -25 -7 -32 -3
-22 14 -48 1 -47 -21 0 -12 -5 -23 -13 -26 -9 -3 -11 0 -6 8 6 9 3 9 -15 0
-18 -9 -24 -9 -30 0 -5 9 -9 9 -14 1 -10 -16 -26 -3 -19 15 5 13 7 13 14 2 7
-10 9 -10 9 1 0 11 3 11 13 -3 12 -16 13 -16 13 1 0 19 -15 21 -151 27 -45 2
-50 4 -47 24 3 20 -1 22 -40 23 -24 1 -46 1 -50 0 -5 0 -9 4 -9 9 -1 6 -2 14
-3 19 -2 19 -17 25 -26 11 -7 -10 -10 -11 -10 -2 0 7 -13 12 -30 12 -25 0 -30
4 -30 25 0 20 -5 25 -25 25 -26 0 -29 6 -25 68 l2 32 -51 0 -51 0 0 -54z
m-110 -121 c19 -22 8 -25 -12 -3 -10 10 -14 18 -9 18 5 0 14 -7 21 -15z m917
-650 c0 -8 -4 -12 -9 -9 -5 3 -6 10 -3 15 9 13 12 11 12 -6z m-1492 -5 c-3 -5
-12 -10 -18 -10 -7 0 -6 4 3 10 19 12 23 12 15 0z m1615 -656 c0 -3 -6 -12
-14 -20 -11 -10 -17 -11 -22 -3 -3 6 0 15 7 20 16 10 29 12 29 3z"/>
<path d="M1313 1723 c4 -3 -1 -12 -11 -20 -15 -13 -15 -13 6 -3 19 9 23 30 5
30 -4 0 -3 -3 0 -7z"/>
<path d="M481 1672 c-1 -8 -6 -10 -13 -6 -7 4 -10 3 -5 -1 13 -15 44 -15 56
-1 8 9 7 13 -4 13 -8 0 -12 -4 -9 -9 3 -4 1 -8 -5 -8 -5 0 -12 6 -14 13 -4 9
-6 9 -6 -1z"/>
<path d="M370 1559 c0 -5 -5 -7 -12 -3 -7 4 -8 3 -4 -4 4 -6 13 -9 21 -6 8 4
12 10 9 15 -7 12 -14 11 -14 -2z"/>
<path d="M510 1221 c0 -6 4 -13 10 -16 6 -3 7 1 4 9 -7 18 -14 21 -14 7z"/>
<path d="M398 1133 c9 -3 10 -9 3 -17 -7 -8 -4 -12 9 -13 11 -1 22 2 25 8 4 5
-2 6 -12 2 -15 -6 -16 -4 -6 8 10 12 8 15 -10 16 -12 0 -16 -1 -9 -4z"/>
<path d="M360 680 c-9 -6 -10 -10 -3 -10 6 0 15 5 18 10 8 12 4 12 -15 0z"/>
<path d="M1610 680 c-9 -6 -10 -10 -3 -10 6 0 15 5 18 10 8 12 4 12 -15 0z"/>
<path d="M253 577 c0 -8 6 -14 13 -14 7 0 10 6 7 14 -3 7 -8 13 -12 13 -4 0
-8 -6 -8 -13z"/>
<path d="M54 468 c-4 -5 -3 -12 0 -15 3 -4 6 0 6 8 0 11 2 12 9 1 7 -11 9 -11
14 0 6 16 -20 21 -29 6z"/>
<path d="M106 414 c-5 -14 -4 -15 9 -4 17 14 19 20 6 20 -5 0 -12 -7 -15 -16z"/>
</g>
</svg>
